# xmcd
#
# Track frame offsets:
#	150
#	23262
#	41700
#	66202
#	85243
#	103009
#	122575
#	144050
#	161718
#	183674
#	201816
#	225935
#	249225
#	268670
#	287993
#	305451
#
# Disc length: 4397 seconds
#
# Revision: 0
# Processed by: cddbd v1.5.1PL0 Copyright (c) Steve Scherf et al.
# Submitted via: dBpowerAMP V4.0
#
DISCID=d3112b10
DTITLE=112 - Pleasure and Pain
DYEAR=2005
DGENRE=R&B
TTITLE0=slip away
TTITLE1=u said
TTITLE2=i know
TTITLE3=god knows
TTITLE4=gotcha
TTITLE5=you know
TTITLE6=i knew
TTITLE7=never wanna
TTITLE8=gotta be
TTITLE9=you know i know
TTITLE10=girls night
TTITLE11=fat girls
TTITLE12=did you know
TTITLE13=my mama
TTITLE14=ya pops
TTITLE15=gotcha back
EXTD=Pleasure and Pain, Jomorris Scott
EXTT0=
EXTT1=
EXTT2=
EXTT3=
EXTT4=
EXTT5=
EXTT6=
EXTT7=
EXTT8=
EXTT9=
EXTT10=
EXTT11=
EXTT12=
EXTT13=
EXTT14=
EXTT15=
PLAYORDER=
